<svg aria-hidden="true" style="position: absolute; width: 0; height: 0; overflow: hidden;" version="1.1"
  xmlns="http://www.w3.org/2000/svg"
  xmlns:xlink="http://www.w3.org/1999/xlink">
  <defs>
    <symbol id="icon-refresh" viewBox="0 0 24 24">
      <path d="M21.433 8.666c-0.921-2.603-2.812-4.587-5.12-5.689s-5.040-1.323-7.643-0.402c-1.472 0.521-2.752 1.354-3.744 2.364l-2.926 2.75v-3.689c0-0.552-0.448-1-1-1s-1 0.448-1 1v5.998c0 0.015 0 0.030 0.001 0.044 0.005 0.115 0.029 0.225 0.069 0.326 0.040 0.102 0.098 0.198 0.173 0.285 0.012 0.013 0.024 0.027 0.036 0.039 0.091 0.095 0.201 0.172 0.324 0.225 0.119 0.051 0.249 0.080 0.386 0.082 0.004 0 0.007 0 0.011 0h6c0.552 0 1-0.448 1-1s-0.448-0.999-1-0.999h-3.476l2.83-2.659c0.777-0.792 1.797-1.46 2.983-1.88 2.083-0.737 4.265-0.561 6.114 0.322s3.359 2.468 4.096 4.551c0.184 0.521 0.756 0.793 1.276 0.609s0.793-0.756 0.609-1.276zM20.475 15l-2.8 2.631c-1.584 1.585-3.63 2.366-5.679 2.366s-4.095-0.78-5.657-2.342c-0.89-0.89-1.523-1.931-1.883-2.981-0.18-0.522-0.748-0.8-1.271-0.621s-0.8 0.748-0.621 1.271c0.46 1.339 1.257 2.642 2.361 3.745 1.953 1.952 4.514 2.928 7.072 2.927s5.118-0.978 7.048-2.909l2.955-2.775v3.688c0 0.552 0.448 1 1 1s1-0.448 1-1v-5.998c0-0.015 0-0.030-0.001-0.044-0.005-0.115-0.029-0.225-0.069-0.326-0.040-0.102-0.098-0.198-0.173-0.285-0.012-0.013-0.024-0.027-0.036-0.039-0.091-0.095-0.201-0.172-0.324-0.225-0.119-0.051-0.249-0.080-0.386-0.082-0.004 0-0.007 0-0.011 0h-6c-0.552 0-1 0.448-1 1s0.448 1 1 1z"></path>
    </symbol>
    <symbol id="icon-x" viewBox="0 0 24 24">
      <path d="M5.293 6.707l5.293 5.293-5.293 5.293c-0.391 0.391-0.391 1.024 0 1.414s1.024 0.391 1.414 0l5.293-5.293 5.293 5.293c0.391 0.391 1.024 0.391 1.414 0s0.391-1.024 0-1.414l-5.293-5.293 5.293-5.293c0.391-0.391 0.391-1.024 0-1.414s-1.024-0.391-1.414 0l-5.293 5.293-5.293-5.293c-0.391-0.391-1.024-0.391-1.414 0s-0.391 1.024 0 1.414z"></path>
    </symbol>
    <symbol id="icon-check" viewBox="0 0 24 24">
      <path d="M19.293 5.293l-10.293 10.293-4.293-4.293c-0.391-0.391-1.024-0.391-1.414 0s-0.391 1.024 0 1.414l5 5c0.391 0.391 1.024 0.391 1.414 0l11-11c0.391-0.391 0.391-1.024 0-1.414s-1.024-0.391-1.414 0z"></path>
    </symbol>
    <symbol id="icon-github" viewBox="0 0 32 32">
      <path d="M16 0.395c-8.836 0-16 7.163-16 16 0 7.069 4.585 13.067 10.942 15.182 0.8 0.148 1.094-0.347 1.094-0.77 0-0.381-0.015-1.642-0.022-2.979-4.452 0.968-5.391-1.888-5.391-1.888-0.728-1.849-1.776-2.341-1.776-2.341-1.452-0.993 0.11-0.973 0.11-0.973 1.606 0.113 2.452 1.649 2.452 1.649 1.427 2.446 3.743 1.739 4.656 1.33 0.143-1.034 0.558-1.74 1.016-2.14-3.554-0.404-7.29-1.777-7.29-7.907 0-1.747 0.625-3.174 1.649-4.295-0.166-0.403-0.714-2.030 0.155-4.234 0 0 1.344-0.43 4.401 1.64 1.276-0.355 2.645-0.532 4.005-0.539 1.359 0.006 2.729 0.184 4.008 0.539 3.054-2.070 4.395-1.64 4.395-1.64 0.871 2.204 0.323 3.831 0.157 4.234 1.026 1.12 1.647 2.548 1.647 4.295 0 6.145-3.743 7.498-7.306 7.895 0.574 0.497 1.085 1.47 1.085 2.963 0 2.141-0.019 3.864-0.019 4.391 0 0.426 0.288 0.925 1.099 0.768 6.354-2.118 10.933-8.113 10.933-15.18 0-8.837-7.164-16-16-16z"></path>
    </symbol>
  </defs>
</svg>
